<svg width="48" height="48" viewBox="0 0 48 48" fill="none" xmlns="http://www.w3.org/2000/svg">
<g clip-path="url(#clip0_29386_106471)">
<path d="M0 33.6955C0 31.6133 0.409069 29.7667 1.22721 28.1555C2.07014 26.5443 3.19818 25.3049 4.61133 24.4373C6.04927 23.5697 7.64836 23.136 9.4086 23.136C10.9457 23.136 12.2845 23.4458 13.4249 24.0655C14.5901 24.6852 15.5198 25.466 16.214 26.4079V23.4706L21.4576 22.5363V44.0691H16.214V41.0574C15.5446 42.0242 14.6149 42.8298 13.4249 43.4742C12.2597 44.0939 10.9085 44.4038 9.37141 44.4038C7.63596 44.4038 6.04927 43.9576 4.61133 43.0652C3.19818 42.1729 2.07014 40.9211 1.22721 39.3099C0.409069 37.6739 0 35.8024 0 33.6955ZM16.214 33.7699C16.214 32.5057 15.9661 31.4274 15.4703 30.5351C14.9744 29.6179 14.305 28.9239 13.4621 28.4529C12.6192 27.9572 11.7143 27.7093 10.7474 27.7093C9.78048 27.7093 8.88796 27.9448 8.06982 28.4157C7.25169 28.8867 6.5823 29.5807 6.06167 30.4979C5.56582 31.3902 5.3179 32.4561 5.3179 33.6955C5.3179 34.9349 5.56582 36.0255 6.06167 36.9675C6.5823 37.8846 7.25169 38.5911 8.06982 39.0868C8.91276 39.5826 9.80527 39.8304 10.7474 39.8304C11.7143 39.8304 12.6192 39.595 13.4621 39.124C14.305 38.6282 14.9744 37.9342 15.4703 37.0418C15.9661 36.1247 16.214 35.034 16.214 33.7699Z" fill="#0A2540"/>
<path d="M48 18.1165L38.4798 44.0691H32.1579L22.6377 18.1165H28.2159L35.356 38.7522L42.459 18.1165H48Z" fill="#0A2540"/>
<path d="M22.9401 5.28519C22.9547 17.206 18.3631 22.8353 11.8324 19.4691C13.742 16.5789 15.1087 15.1609 17.9226 12.8891C15.1861 14.7396 13.7165 15.9631 11.342 18.8576C5.5302 8.94857 20.3034 7.71391 22.9401 5.28519Z" fill="#0A2540"/>
<path d="M1.18852 13.0431C0.967006 20.2757 3.65251 23.7732 7.67508 21.8473C6.56802 20.0596 5.76406 19.1749 4.09726 17.7462C5.72458 18.9178 6.59446 19.6864 7.98356 21.485C11.6866 15.5764 2.74497 14.5637 1.18852 13.0431Z" fill="#0A2540"/>
</g>
<defs>
<clipPath id="clip0_29386_106471">
<rect width="48" height="48" fill="white"/>
</clipPath>
</defs>
</svg>
