<svg xmlns="http://www.w3.org/2000/svg" viewBox="0 0 100 100">
  <defs>
    <linearGradient id="circleGradient" x1="0%" y1="0%" x2="100%" y2="100%">
      <stop offset="0%" style="stop-color:#f8f9fa;stop-opacity:0.95"/>
      <stop offset="100%" style="stop-color:#e9ecef;stop-opacity:0.95"/>
    </linearGradient>
    <linearGradient id="buildingGradient" x1="0%" y1="0%" x2="100%" y2="0%">
      <stop offset="0%" style="stop-color:#2b3137"/>
      <stop offset="100%" style="stop-color:#373d44"/>
    </linearGradient>
    <linearGradient id="windowGradient" x1="0%" y1="0%" x2="0%" y2="100%">
      <stop offset="0%" style="stop-color:#a8d8ff"/>
      <stop offset="100%" style="stop-color:#75b6ff"/>
    </linearGradient>
  </defs>

  <!-- Background circle -->
  <circle cx="50" cy="50" r="48" fill="url(#circleGradient)" stroke="#dee2e6" stroke-width="1.5"/>

  <!-- Building complex - properly centered -->
  <g transform="translate(27.5, 10)">
    <!-- Main tower -->
    <path d="M15 10 L35 10 L35 75 L15 75 Z" fill="url(#buildingGradient)"/>

    <!-- Secondary tower -->
    <path d="M0 22 L15 22 L15 75 L0 75 Z" fill="url(#buildingGradient)"/>

    <!-- Connecting section -->
    <path d="M35 30 L45 30 L45 75 L35 75 Z" fill="url(#buildingGradient)"/>

    <!-- Architectural details - Main tower -->
    <rect x="17" y="15" width="16" height="3" fill="#4a525a"/>
    <rect x="17" y="24" width="16" height="3" fill="#4a525a"/>
    <rect x="17" y="33" width="16" height="3" fill="#4a525a"/>
    <rect x="17" y="42" width="16" height="3" fill="#4a525a"/>
    <rect x="17" y="51" width="16" height="3" fill="#4a525a"/>
    <rect x="17" y="60" width="16" height="3" fill="#4a525a"/>

    <!-- Windows - Secondary tower -->
    <rect x="2" y="28" width="11" height="13" fill="url(#windowGradient)" opacity="0.9"/>
    <rect x="2" y="46" width="11" height="13" fill="url(#windowGradient)" opacity="0.9"/>

    <!-- Windows - Connecting section -->
    <rect x="37" y="35" width="6" height="10" fill="url(#windowGradient)" opacity="0.9"/>
    <rect x="37" y="50" width="6" height="10" fill="url(#windowGradient)" opacity="0.9"/>

    <!-- Rooftop details -->
    <path d="M15 10 L25 3 L35 10" fill="#2b3137"/>
    <rect x="24" y="5" width="2" height="5" fill="#4a525a"/>

    <!-- Ground floor details -->
    <path d="M0 75 L45 75 L43 79 L2 79 Z" fill="#232323"/>

    <!-- Entrance -->
    <rect x="22" y="65" width="6" height="10" fill="#4a525a"/>
    <rect x="23" y="66" width="4" height="9" fill="url(#windowGradient)" opacity="0.7"/>
  </g>
</svg>