<?xml version="1.0" encoding="UTF-8"?>
<svg xmlns="http://www.w3.org/2000/svg" viewBox="0 0 140 32">
  <!-- Star icon - simplified and bolder -->
  <path fill="currentColor" d="M16 2l4.5 9.1 10 1.5-7.2 7 1.7 10L16 24.4l-9-4.8 1.7-10-7.2-7 10-1.5L16 2z"/>
  
  <!-- Wordmark - adjusted spacing and weight -->
  <g fill="currentColor" transform="translate(34, 8)">
    <!-- "tech" part -->
    <path d="M6.258.728H9.69V3.79h2.473v2.44H9.69v5.029c0 1.06.336 1.262 1.48 1.262h.992v2.49H9.977c-2.776 0-3.718-.539-3.718-3.146V6.229H4.49V3.79h1.767z"/>
    <path d="M23.804 11.511c-1.01 2.658-3.365 3.802-5.602 3.802-3.65 0-6.157-2.203-6.157-5.955 0-3.6 2.725-5.871 6.022-5.871 3.735 0 6.023 2.826 5.787 6.813h-8.327c.1 1.598 1.346 2.322 2.59 2.322 1.313 0 2.137-.471 2.524-1.127zm-8.227-3.297h4.862c-.067-1.413-1.043-2.12-2.355-2.12-1.245 0-2.322.64-2.507 2.12z"/>
    <path d="M35.663 7.911h-3.196c-.303-1.312-1.127-1.766-2.136-1.766-1.228 0-2.44.841-2.44 3.247 0 2.439 1.212 3.246 2.44 3.246 1.261 0 2.052-.656 2.304-1.732h3.197c-.774 3.33-3.466 4.39-5.72 4.39-3.7 0-5.736-2.372-5.736-5.955s2.338-5.87 5.736-5.87c2.322 0 4.878 1.059 5.551 4.44z"/>
    <path d="M39.65 5.287c.488-.841 1.716-1.733 3.483-1.733 2.876 0 3.785 1.7 3.785 4.744v6.746h-3.432V9.173c0-1.598-.05-2.91-1.716-2.91-1.48 0-2.103.959-2.103 3.061v5.754h-3.432V-.062h3.432z"/>
    
    <!-- "stars" part - slightly bolder -->
    <path d="M54.824 7.104c-.235-.841-1.11-1.077-2.187-1.077-1.194 0-1.783.286-1.783.841 0 .522.404.825 1.38 1.01l2.102.37c2.692.488 3.987 1.295 3.987 3.263 0 2.524-2.321 3.802-5.433 3.802-2.995 0-5.114-1.261-5.501-3.92h3.196c.303 1.077 1.178 1.414 2.355 1.414 1.228 0 2.086-.337 2.086-1.01 0-.488-.437-.824-1.766-1.043l-2.002-.336c-2.17-.353-3.65-1.447-3.65-3.432 0-2.237 2.355-3.465 5.13-3.465 2.557 0 4.895 1.026 5.316 3.6z"/>
    <path d="M60.09.728h3.431V3.79h2.473v2.44h-2.473v5.029c0 1.06.337 1.262 1.48 1.262h.976v2.49h-2.17c-2.775 0-3.717-.539-3.717-3.146V6.229h-1.767V3.79h1.767z"/>
    <path d="M73.833 7.575c0-1.346-.639-1.783-1.9-1.783-1.11 0-1.85.572-2.002 1.648h-3.213c.168-2.12 2.17-3.987 5.5-3.987 3.247 0 5.08 1.313 5.014 4.727l-.05 2.44v1.177c0 1.228.083 2.557.251 3.247h-3.38l-.051-1.363c-.841 1.195-2.17 1.632-3.785 1.632-2.137 0-3.886-1.245-3.886-3.297 0-2.759 3.112-3.65 7.469-3.987zm.101 2.473c-2.405.235-4.003.47-4.003 1.716 0 .723.69 1.21 1.581 1.21 1.38 0 2.422-.588 2.422-2.657z"/>
    <path d="M85.104 7.104a4.4 4.4 0 0 0-.942-.067c-1.665 0-2.523.605-2.523 2.355v5.635h-3.448V3.79h3.313v2.136c.522-1.346 1.464-2.136 3.062-2.203h.253c.1 0 .185 0 .285.016z"/>
    <path d="M92.708 7.104c-.235-.841-1.11-1.077-2.187-1.077-1.194 0-1.783.286-1.783.841 0 .522.404.825 1.38 1.01l2.086.37c2.691.488 3.987 1.295 3.987 3.263 0 2.524-2.322 3.802-5.434 3.802-2.978 0-5.114-1.261-5.501-3.92h3.196c.303 1.077 1.178 1.414 2.355 1.414 1.228 0 2.086-.337 2.086-1.01 0-.488-.437-.824-1.766-1.043l-2.002-.336c-2.17-.353-3.634-1.447-3.634-3.432 0-2.237 2.356-3.465 5.131-3.465 2.557 0 4.896 1.026 5.316 3.6z"/>
  </g>
</svg>